<?xml version="1.0" standalone="no"?>
<!DOCTYPE svg PUBLIC "-//W3C//DTD SVG 20010904//EN"
 "http://www.w3.org/TR/2001/REC-SVG-20010904/DTD/svg10.dtd">
<svg version="1.0" xmlns="http://www.w3.org/2000/svg"
 width="391.000000pt" height="391.000000pt" viewBox="0 0 391.000000 391.000000"
 preserveAspectRatio="xMidYMid meet">
<metadata>
Created by potrace 1.11, written by Peter Selinger 2001-2013
</metadata>
<g transform="translate(0.000000,391.000000) scale(0.100000,-0.100000)"
fill="#000000" stroke="none">
<path d="M1460 2375 c-11 -28 -1 -39 19 -21 21 19 67 21 73 4 10 -28 1 -192
-10 -196 -29 -9 -7 -22 38 -22 28 0 50 5 50 10 0 6 -6 10 -14 10 -18 0 -21 19
-21 120 0 84 0 85 26 88 15 2 33 -4 42 -12 22 -22 27 -20 27 12 l0 27 -111 0
c-102 0 -112 -1 -119 -20z"/>
<path d="M1744 2389 c-2 -4 3 -9 11 -13 22 -8 22 -204 0 -212 -30 -12 -14 -21
35 -23 28 0 50 4 50 9 0 6 -7 10 -15 10 -12 0 -15 13 -15 55 l0 55 70 -1 70
-2 0 -53 c0 -42 -3 -54 -16 -54 -8 0 -12 -4 -9 -10 8 -12 95 -13 95 -1 0 5 -7
11 -15 15 -22 8 -22 204 0 212 27 11 7 20 -37 18 -56 -2 -56 -3 -35 -15 11 -7
17 -22 17 -48 l0 -38 -70 0 -70 0 0 38 c0 21 5 41 10 44 21 13 9 21 -31 20
-22 0 -43 -3 -45 -6z"/>
<path d="M2090 2389 c0 -4 7 -9 15 -13 23 -8 22 -216 -1 -216 -8 0 -12 -4 -9
-10 7 -11 155 -14 156 -2 0 4 2 17 5 30 5 27 -7 29 -23 4 -7 -11 -21 -18 -35
-16 -12 1 -26 3 -30 3 -11 1 -7 85 5 92 12 8 47 -1 47 -12 0 -5 5 -9 10 -9 6
0 10 11 10 25 0 22 -4 25 -39 25 -40 0 -40 0 -39 40 0 35 3 40 23 40 13 0 30
-7 39 -15 16 -16 23 -11 22 19 -1 18 -9 20 -78 20 -43 1 -78 -2 -78 -5z"/>
<path d="M240 2090 c-12 -7 -10 -9 7 -7 12 0 19 5 17 9 -6 10 -6 10 -24 -2z"/>
<path d="M295 2090 c-3 -5 -1 -10 4 -10 6 0 11 5 11 10 0 6 -2 10 -4 10 -3 0
-8 -4 -11 -10z"/>
<path d="M340 2088 c0 -4 7 -8 15 -8 8 0 15 4 15 8 0 5 -7 9 -15 9 -8 0 -15
-4 -15 -9z"/>
<path d="M410 2089 c-19 -4 666 -7 1523 -8 856 0 1557 2 1557 7 0 8 -3029 10
-3080 1z"/>
<path d="M3520 2090 l-25 -8 28 -1 c15 -1 27 4 27 9 0 6 -1 10 -2 9 -2 -1 -14
-5 -28 -9z"/>
<path d="M3570 2090 c-13 -8 -12 -10 3 -10 9 0 17 5 17 10 0 12 -1 12 -20 0z"/>
<path d="M3628 2088 c5 -5 16 -8 23 -6 8 3 3 7 -10 11 -17 4 -21 3 -13 -5z"/>
<path d="M424 2016 c-74 -32 -97 -118 -50 -186 13 -19 54 -57 90 -85 96 -74
115 -131 58 -175 -53 -43 -162 -12 -162 45 0 32 -16 40 -24 12 -11 -40 -6 -84
10 -98 22 -18 140 -21 179 -5 46 20 83 63 90 108 9 52 -22 113 -82 158 -98 74
-123 101 -123 131 0 32 30 68 58 70 63 4 99 -11 108 -46 6 -26 23 -34 25 -12
0 6 2 26 5 44 2 18 -1 35 -7 39 -22 13 -144 13 -175 0z"/>
<path d="M1867 2023 c-3 -5 -44 -107 -92 -228 -85 -215 -108 -255 -146 -255
-10 0 -19 -4 -19 -10 0 -6 35 -10 85 -10 50 0 85 4 85 10 0 6 -6 10 -14 10
-27 0 -27 20 1 95 l28 75 75 0 76 0 33 -80 c18 -44 31 -86 27 -95 -4 -13 7
-15 74 -15 80 0 106 13 51 25 -16 3 -36 16 -44 28 -7 12 -56 120 -107 240 -85
201 -101 230 -113 210z m32 -194 c17 -44 31 -82 31 -83 0 -5 -110 0 -115 6 -3
3 5 34 19 69 15 34 26 68 26 76 0 27 9 11 39 -68z"/>
<path d="M2491 2011 c-69 -24 -99 -47 -138 -104 -61 -91 -52 -222 22 -300 20
-22 62 -51 93 -65 52 -24 68 -27 174 -27 134 0 145 5 158 77 11 56 -4 71 -26
25 -23 -49 -54 -62 -138 -61 -84 1 -135 23 -188 82 -47 52 -61 99 -55 178 8
116 77 172 212 172 113 0 166 -32 170 -100 0 -5 5 -8 10 -8 12 0 20 130 8 131
-4 0 -17 2 -28 5 -11 2 -65 6 -120 9 -80 4 -110 1 -154 -14z"/>
<path d="M870 2011 c0 -5 14 -11 30 -14 35 -7 33 10 31 -266 0 -163 -6 -191
-37 -191 -8 0 -14 -4 -14 -10 0 -6 38 -10 94 -10 53 0 98 4 101 10 3 6 -4 10
-17 10 -44 0 -49 11 -50 111 0 52 0 101 1 111 1 14 18 16 146 17 l146 0 -3
-112 c-3 -105 -4 -113 -25 -122 -43 -18 -23 -25 72 -25 57 0 95 4 95 10 0 6
-8 10 -17 10 -46 1 -48 8 -49 222 0 112 3 211 8 221 5 9 18 17 29 17 11 0 17
5 14 10 -3 6 -46 10 -96 10 -53 0 -89 -4 -89 -10 0 -5 8 -10 18 -10 33 0 42
-21 42 -105 l0 -80 -145 0 c-122 0 -145 2 -146 15 -2 16 -1 88 0 132 1 21 7
29 26 34 14 3 22 10 19 15 -7 12 -184 12 -184 0z"/>
<path d="M3040 2011 c0 -5 14 -11 30 -14 35 -7 32 10 32 -232 0 -227 2 -214
-27 -221 -53 -13 -21 -24 70 -24 93 0 125 12 65 24 -22 4 -30 11 -31 28 -1 13
-2 60 -4 106 l-3 83 96 -93 c127 -123 120 -117 150 -132 30 -15 162 -22 162
-9 0 5 -19 14 -42 20 -47 13 -97 52 -225 173 l-83 78 86 78 c92 85 148 124
177 124 10 0 15 5 12 10 -7 11 -138 14 -148 3 -4 -3 -2 -11 3 -18 7 -8 -17
-36 -81 -96 -50 -46 -94 -85 -98 -87 -4 -1 -7 37 -6 85 0 85 1 87 28 98 15 6
24 14 21 18 -11 10 -184 9 -184 -2z"/>
</g>
</svg>
